<?xml version="1.0" standalone="no"?>
<!DOCTYPE svg PUBLIC "-//W3C//DTD SVG 20010904//EN"
 "http://www.w3.org/TR/2001/REC-SVG-20010904/DTD/svg10.dtd">
<svg version="1.0" xmlns="http://www.w3.org/2000/svg"
 width="710.000000pt" height="710.000000pt" viewBox="0 0 710.000000 710.000000"
 preserveAspectRatio="xMidYMid meet">
<metadata>
Created by potrace 1.11, written by Peter Selinger 2001-2013
</metadata>
<g transform="translate(0.000000,710.000000) scale(0.100000,-0.100000)"
fill="#000000" stroke="none">
<path d="M3516 6775 c-105 -59 -177 -114 -262 -199 -95 -95 -160 -186 -294
-406 -122 -200 -196 -342 -206 -397 -5 -28 -14 -38 -40 -49 -34 -14 -34 -14
-103 43 -112 94 -565 338 -717 386 -164 52 -403 82 -482 60 l-34 -8 124 -80
c67 -44 166 -112 218 -151 99 -75 191 -163 155 -149 -139 56 -336 58 -535 7
-164 -42 -502 -154 -493 -163 8 -7 36 -19 166 -70 31 -12 57 -25 57 -28 0 -3
-22 -15 -48 -27 -35 -15 -74 -49 -147 -130 -55 -60 -120 -137 -145 -172 -25
-35 -68 -96 -97 -135 -67 -93 -220 -381 -254 -477 -14 -41 -35 -97 -47 -125
-11 -27 -36 -99 -56 -160 -19 -60 -47 -144 -61 -185 -15 -41 -39 -143 -55
-225 -16 -83 -33 -162 -38 -175 -11 -29 -36 -186 -51 -316 -17 -142 -14 -734
5 -889 22 -194 30 -245 47 -295 8 -25 26 -85 40 -135 70 -245 209 -463 472
-737 58 -60 105 -113 105 -117 0 -12 203 -194 283 -253 88 -65 250 -168 266
-168 6 0 11 -4 11 -10 0 -5 7 -10 15 -10 8 0 23 -4 33 -9 45 -23 131 -51 177
-57 6 0 19 -4 30 -8 109 -41 295 -80 365 -76 8 0 26 -1 40 -2 14 -1 138 -2
275 -2 207 0 274 4 390 22 572 89 1071 336 1480 733 l130 126 79 -24 c162 -47
291 -65 502 -70 347 -9 508 21 924 171 25 9 52 19 60 23 8 3 20 7 25 9 6 1 48
18 95 38 47 20 90 36 97 36 24 0 160 68 208 103 85 61 157 115 228 170 38 29
86 65 108 80 38 28 120 122 187 216 49 69 147 273 181 378 70 215 101 491 82
726 -24 312 -79 527 -219 856 -324 765 -795 1360 -1272 1610 -189 99 -339 144
-547 165 l-128 13 75 22 c41 13 85 26 97 29 18 6 -24 29 -198 110 -121 57
-259 117 -306 133 -103 35 -229 53 -302 44 -64 -8 -70 -23 51 131 43 55 78
102 78 105 0 6 -303 -60 -437 -95 -237 -62 -421 -162 -512 -278 l-33 -43 7 35
c16 79 62 195 148 372 50 104 88 190 86 193 -3 2 -40 -15 -83 -40z"/>
</g>
</svg>
